#!OML:ASF F:\VICON\USERDATA\INSTALL\Justin_Nancy\Justin_Nancy.ASF
:FULLY-SPECIFIED
:DEGREES
178
root 0.703832 16.9359 9.22892 -0.751581 -5.95383 -2.27029
lowerback 5.27739 2.36192 1.30672
upperback 0.0584333 3.28965 2.09708
thorax -2.9464 1.63334 1.17176
lowerneck -15.8316 -3.66215 -9.28667
upperneck 21.9238 -4.06942 5.70784
head 9.89135 -2.01797 3.01681
rclavicle -4.72114e-015 -1.11319e-014
rhumerus -22.5314 -5.27076 -78.0812
rradius 46.642
rwrist 0.386967
rhand -17.3635 14.4713
rfingers 7.12502
rthumb 8.88462 -15.3217
lclavicle -4.72114e-015 -1.11319e-014
lhumerus -41.7158 16.9482 79.7623
lradius 16.4895
lwrist -21.6016
lhand -9.8311 27.9494
lfingers 7.12502
lthumb 16.1463 57.2969
rfemur 13.4532 4.61811 26.5863
rtibia 35.8522
rfoot -1.8707 2.29106
rtoes -12.6977
lfemur -30.8087 -0.982219 -19.239
ltibia 29.5511
lfoot -2.33023 1.13034
ltoes -9.78578
179
root 0.706459 16.9535 9.48851 -0.909775 -6.02481 -1.66849
lowerback 5.31911 2.40578 0.681036
upperback -0.0046998 3.30782 1.93493
thorax -3.06078 1.65036 1.34901
lowerneck -15.8611 -3.63587 -9.5099
upperneck 22.2735 -4.0475 5.96743
head 10.0301 -2.00055 3.15521
rclavicle -1.62693e-014 -7.95139e-016
rhumerus -23.1138 -5.82608 -78.1402
rradius 46.4795
rwrist 0.327311
rhand -17.4967 14.4132
rfingers 7.12502
rthumb 8.75607 -15.3851
lclavicle -1.62693e-014 -7.95139e-016
lhumerus -41.9161 17.2415 79.4592
lradius 16.4954
lwrist -21.8367
lhand -9.37204 28.9158
lfingers 7.12502
lthumb 16.5883 58.2268
rfemur 11.9539 4.38619 25.5492
rtibia 39.0725
rfoot 2.40794 3.1443
rtoes -10.2095
lfemur -30.1498 -0.500154 -20.13
ltibia 30.1252
lfoot -1.86974 0.744059
ltoes -4.58087
180
root 0.713116 16.9753 9.74429 -1.06537 -5.90547 -1.24903
lowerback 5.29703 2.423 0.383579
upperback 0.108796 3.30448 1.76239
thorax -2.93763 1.65176 1.34158
lowerneck -16.1913 -3.74957 -9.62429
upperneck 22.4542 -4.18472 6.10321
head 10.1757 -2.05462 3.20458
rclavicle -7.67806e-015 1.82882e-014
rhumerus -23.5612 -6.67193 -78.17
rradius 46.4028
rwrist 0.315738
rhand -17.6338 14.5302
rfingers 7.12502
rthumb 8.62373 -15.2737
lclavicle -7.67806e-015 1.82882e-014
lhumerus -41.6351 17.8247 79.0395
lradius 16.3053
lwrist -22.2714
lhand -8.79254 29.7722
lfingers 7.12502
lthumb 17.1461 59.0356
rfemur 10.3435 3.94106 24.7058
rtibia 42.2941
rfoot 6.59799 4.09453
rtoes -9.45181
lfemur -29.4409 0.0107971 -20.9327
ltibia 30.7231
lfoot -2.0834 0.494174
ltoes -3.81474
181
root 0.722947 16.9996 9.99175 -1.18937 -5.69742 -1.02279
lowerback 5.34801 2.37497 0.29951
upperback 0.234577 3.23003 1.64521
thorax -2.83253 1.6147 1.27482
lowerneck -16.4326 -3.76647 -9.61186
upperneck 22.4142 -4.2004 6.1596
head 10.2094 -2.04985 3.21822
rclavicle 1.93567e-014 0
rhumerus -23.9329 -7.46978 -78.2122
rradius 46.3196
rwrist 0.40909
rhand -17.5009 14.4449
rfingers 7.12502
rthumb 8.75201 -15.3537
lclavicle 1.93567e-014 0
lhumerus -41.3142 18.5919 78.5463
lradius 16.1998
lwrist -22.575
lhand -8.52019 29.8375
lfingers 7.12502
lthumb 17.4083 59.0779
rfemur 8.66029 3.43609 24.0904
rtibia 45.4597
rfoot 10.1115 4.9441
rtoes -0.1363
lfemur -28.7703 0.519924 -21.5255
ltibia 31.3373
lfoot -2.61884 -0.303721
ltoes -5.23317
182
root 0.733377 17.026 10.2284 -1.30544 -5.61453 -0.937751
lowerback 5.7026 2.32504 0.284815
upperback 0.126318 3.16788 1.61367
thorax -3.14059 1.58351 1.23769
lowerneck -16.2803 -3.63221 -9.54638
upperneck 22.3638 -4.02744 6.10099
head 10.1435 -1.97328 3.2108
rclavicle 3.58434e-015 1.59028e-015
rhumerus -24.7156 -7.91746 -78.2424
rradius 46.3399
rwrist 0.516982
rhand -17.4669 14.1098
rfingers 7.12502
rthumb 8.78478 -15.6874
lclavicle 3.58434e-015 1.59028e-015
lhumerus -41.5276 18.9485 78.2339
lradius 16.3779
lwrist -22.3744
lhand -8.97842 29.1238
lfingers 7.12502
lthumb 16.9672 58.4027
rfemur 6.843 3.04393 23.6706
rtibia 48.6093
rfoot 13.5297 5.62647
rtoes 6.93568
lfemur -28.1606 0.911753 -21.8581
ltibia 31.9236
lfoot -2.84573 -0.878483
ltoes -5.03163
183
root 0.740874 17.0471 10.4621 -1.5043 -5.67544 -0.936903
lowerback 6.15621 2.27445 0.30185
upperback 0.0451079 3.10986 1.65016
thorax -3.47889 1.55415 1.24994
lowerneck -16.1794 -3.52358 -9.56293
upperneck 22.3889 -3.86095 6.02234
head 10.1173 -1.90895 3.20966
rclavicle -3.66509e-016 8.34896e-015
rhumerus -25.4157 -8.19672 -78.3007
rradius 46.2383
rwrist 0.383436
rhand -17.4697 14.0332
rfingers 7.12502
rthumb 8.7821 -15.7641
lclavicle -3.66509e-016 8.34896e-015
lhumerus -41.9343 18.3973 78.5868
lradius 17.1485
lwrist -21.0441
lhand -9.40934 28.8832
lfingers 7.12502
lthumb 16.5524 58.1973
rfemur 5.05092 2.8384 23.4139
rtibia 51.7176
rfoot 16.9852 5.90712
rtoes 13.161
lfemur -27.4203 1.14849 -22.0042
ltibia 32.4371
lfoot -3.1172 -0.851531
ltoes -3.13379
184
root 0.746898 17.0692 10.7004 -1.66114 -5.8267 -0.748639
lowerback 6.27926 2.25152 0.120096
upperback 0.11973 3.06598 1.64193
thorax -3.47887 1.53502 1.34377
lowerneck -16.1926 -3.48319 -9.52525
upperneck 22.2313 -3.76449 5.85215
head 10.0511 -1.87883 3.15281
rclavicle -1.25421e-014 -7.55382e-015
rhumerus -25.7395 -8.46783 -78.401
rradius 45.8987
rwrist 0.194758
rhand -17.2156 13.7866
rfingers 7.12502
rthumb 9.02734 -16.0002
lclavicle -1.25421e-014 -7.55382e-015
lhumerus -42.0867 17.7245 79.1645
lradius 18.081
lwrist -19.5255
lhand -9.06097 29.4839
lfingers 7.12502
lthumb 16.8877 58.7697
rfemur 3.15871 2.81063 23.0168
rtibia 54.7947
rfoot 19.5809 5.4872
rtoes 18.2247
lfemur -26.5532 1.36195 -22.3311
ltibia 32.7897
lfoot -3.84271 -0.95863
ltoes -0.895636
185
root 0.752551 17.0952 10.934 -1.91398 -5.99009 -0.467764
lowerback 6.50419 2.1987 -0.191025
upperback 0.269059 2.97192 1.63475
thorax -3.46365 1.49255 1.51366
lowerneck -16.3789 -3.39427 -9.37349
upperneck 22.1871 -3.58231 5.54072
head 10.0462 -1.81433 3.03913
rclavicle -3.2551e-015 5.96354e-015
rhumerus -25.8785 -8.70907 -78.549
rradius 45.4452
rwrist 0.275587
rhand -16.6182 13.6147
rfingers 7.12502
rthumb 9.60372 -16.1464
lclavicle -3.2551e-015 5.96354e-015
lhumerus -41.9332 17.6902 79.4323
lradius 18.5572
lwrist -18.6481
lhand -8.97118 29.166
lfingers 7.12502
lthumb 16.9742 58.4443
rfemur 1.40117 2.72842 22.5516
rtibia 57.7682
rfoot 20.5766 4.24976
rtoes 19.9839
lfemur -25.4852 1.5955 -22.7633
ltibia 33.0132
lfoot -4.66337 -1.08447
ltoes -0.759003
186
root 0.756542 17.1146 11.1589 -2.12126 -5.93427 0.366757
lowerback 6.67521 2.10343 -1.07538
upperback 0.385336 2.77175 1.4651
thorax -3.46678 1.40508 1.84932
lowerneck -16.5486 -3.28602 -9.34285
upperneck 22.1293 -3.3924 5.43151
head 10.0391 -1.73362 3.01939
rclavicle -1.61388e-014 -2.78299e-015
rhumerus -25.9925 -9.02755 -78.7307
rradius 44.9083
rwrist 0.639957
rhand -16.51 13.6601
rfingers 7.12502
rthumb 9.70815 -16.0961
lclavicle -1.61388e-014 -2.78299e-015
lhumerus -41.6074 17.5791 79.7167
lradius 18.8546
lwrist -17.6718
lhand -10.0935 27.7152
lfingers 7.12502
lthumb 15.8936 57.083
rfemur -0.377717 2.311 21.4077
rtibia 60.6554
rfoot 19.7285 2.5194
rtoes 19.6248
lfemur -24.4495 1.49173 -23.7739
ltibia 33.0376
lfoot -5.18671 -0.685399
ltoes 0.0655365
187
root 0.757782 17.1266 11.3808 -2.18249 -5.8394 1.10285
lowerback 6.71611 2.02263 -1.86897
upperback 0.464968 2.59838 1.32216
thorax -3.42879 1.32912 2.16408
lowerneck -16.5912 -3.15986 -9.39735
upperneck 21.8752 -3.1893 5.43601
head 9.94025 -1.63998 3.05396
rclavicle 1.42255e-014 -7.95139e-016
rhumerus -26.1173 -9.29139 -78.8879
rradius 44.2489
rwrist 1.03317
rhand -16.76 13.8506
rfingers 7.12502
rthumb 9.46689 -15.9168
lclavicle 1.42255e-014 -7.95139e-016
lhumerus -41.1238 17.4265 80.0512
lradius 18.9013
lwrist -16.833
lhand -11.3284 26.1769
lfingers 7.12502
lthumb 14.7041 55.6355
rfemur -2.29962 1.8638 20.4134
rtibia 63.3408
rfoot 17.5748 0.752347
rtoes 16.1266
lfemur -23.5747 1.31158 -24.6735
ltibia 32.9702
lfoot -5.66665 -0.409477
ltoes 1.68944
